  0
SECTION
  2
HEADER
  9
$ANGBASE
  50
0.0
  9
$ANGDIR
  70
1
  9
$MEASUREMENT
  70
1
  0
ENDSEC
  0
SECTION
  2
TABLES
  0
TABLE
  2
LTYPE
  70
4
  0
LTYPE
  5
40F
  2
CONTINUOUS
  70
0
  3
Solid line
  72
65
  73
0
  40
0.0
  0
LTYPE
  5
410
  2
DASHDOT
 70
0
  3
Dash Dot ____ _ ____ _
 72
65
 73
4
 40
2.0
 49
1.25
 49
-0.25
 49
0.25
 49
-0.25
  0
LTYPE
  5
411
  2
DASHED
 70
0
  3
Dashed __ __ __ __ __
 72
65
 73
2
 40
0.75
 49
0.5
 49
-0.25
  0
LTYPE
  5
43B
  2
DOTTED
 70
0
  3
Dotted .  .  .  .
 72
65
 73
2
 40
0.2
 49
0.0
 49
-0.2
  0
ENDTAB
  0
TABLE
  2
STYLE
  70
4
  0
STYLE
  2
KICAD
  70
0
  40
0
  41
1
  42
1
  50
0
  71
0
  3
isocp.shx
  0
STYLE
  2
KICADB
  70
0
  40
0
  41
1
  42
1
  50
0
  71
0
  3
isocp.shx
  0
STYLE
  2
KICADI
  70
0
  40
0
  41
1
  42
1
  50
15
  71
0
  3
isocp.shx
  0
STYLE
  2
KICADBI
  70
0
  40
0
  41
1
  42
1
  50
15
  71
0
  3
isocp.shx
  0
ENDTAB
  0
TABLE
  2
LAYER
  70
1
  0
LAYER
  2
BLACK
  70
0
  62
7
  6
CONTINUOUS
  0
ENDTAB
  0
ENDSEC
  0
SECTION
  2
ENTITIES
0
LINE
8
BLACK
6
CONTINUOUS
10
98.75
20
-72.9749999999999943
11
98.9279889999999966
21
-72.9905720000000002
0
LINE
8
BLACK
6
CONTINUOUS
10
98.9279889999999966
20
-72.9905720000000002
11
99.1005710000000022
21
-73.0368149999999901
0
LINE
8
BLACK
6
CONTINUOUS
10
99.1005710000000022
20
-73.0368149999999901
11
99.2624999999999886
21
-73.112324000000001
0
LINE
8
BLACK
6
CONTINUOUS
10
99.2624999999999886
20
-73.112324000000001
11
99.4088569999999976
21
-73.2148040000000009
0
LINE
8
BLACK
6
CONTINUOUS
10
99.4088569999999976
20
-73.2148040000000009
11
99.5351959999999991
21
-73.3411430000000024
0
LINE
8
BLACK
6
CONTINUOUS
10
99.5351959999999991
20
-73.3411430000000024
11
99.637675999999999
21
-73.4874999999999972
0
LINE
8
BLACK
6
CONTINUOUS
10
99.637675999999999
20
-73.4874999999999972
11
99.7131849999999957
21
-73.6494289999999978
0
LINE
8
BLACK
6
CONTINUOUS
10
99.7131849999999957
20
-73.6494289999999978
11
99.7594279999999998
21
-73.8220110000000034
0
LINE
8
BLACK
6
CONTINUOUS
10
99.7594279999999998
20
-73.8220110000000034
11
99.7749999999999915
21
-74.
0
LINE
8
BLACK
6
CONTINUOUS
10
99.7749999999999915
20
-74.
11
99.7749999999999915
21
-128.
0
LINE
8
BLACK
6
CONTINUOUS
10
99.7749999999999915
20
-128.
11
99.7594279999999998
21
-128.1779889999999966
0
LINE
8
BLACK
6
CONTINUOUS
10
99.7594279999999998
20
-128.1779889999999966
11
99.7131849999999957
21
-128.3505710000000022
0
LINE
8
BLACK
6
CONTINUOUS
10
99.7131849999999957
20
-128.3505710000000022
11
99.637675999999999
21
-128.5124999999999886
0
LINE
8
BLACK
6
CONTINUOUS
10
99.637675999999999
20
-128.5124999999999886
11
99.5351959999999991
21
-128.6588569999999834
0
LINE
8
BLACK
6
CONTINUOUS
10
99.5351959999999991
20
-128.6588569999999834
11
99.4088569999999976
21
-128.7851959999999849
0
LINE
8
BLACK
6
CONTINUOUS
10
99.4088569999999976
20
-128.7851959999999849
11
99.2624999999999886
21
-128.887675999999999
0
LINE
8
BLACK
6
CONTINUOUS
10
99.2624999999999886
20
-128.887675999999999
11
99.1005710000000022
21
-128.9631849999999815
0
LINE
8
BLACK
6
CONTINUOUS
10
99.1005710000000022
20
-128.9631849999999815
11
98.9279889999999966
21
-129.0094279999999856
0
LINE
8
BLACK
6
CONTINUOUS
10
98.9279889999999966
20
-129.0094279999999856
11
98.75
21
-129.0250000000000057
0
LINE
8
BLACK
6
CONTINUOUS
10
98.75
20
-129.0250000000000057
11
20.5
21
-129.0250000000000057
0
LINE
8
BLACK
6
CONTINUOUS
10
20.5
20
-129.0250000000000057
11
20.3220109999999998
21
-129.0094279999999856
0
LINE
8
BLACK
6
CONTINUOUS
10
20.3220109999999998
20
-129.0094279999999856
11
20.1494289999999978
21
-128.9631849999999815
0
LINE
8
BLACK
6
CONTINUOUS
10
20.1494289999999978
20
-128.9631849999999815
11
19.9875000000000007
21
-128.887675999999999
0
LINE
8
BLACK
6
CONTINUOUS
10
19.9875000000000007
20
-128.887675999999999
11
19.8411429999999989
21
-128.7851959999999849
0
LINE
8
BLACK
6
CONTINUOUS
10
19.8411429999999989
20
-128.7851959999999849
11
19.7148040000000009
21
-128.6588569999999834
0
LINE
8
BLACK
6
CONTINUOUS
10
19.7148040000000009
20
-128.6588569999999834
11
19.6123239999999974
21
-128.5124999999999886
0
LINE
8
BLACK
6
CONTINUOUS
10
19.6123239999999974
20
-128.5124999999999886
11
19.5368150000000007
21
-128.3505710000000022
0
LINE
8
BLACK
6
CONTINUOUS
10
19.5368150000000007
20
-128.3505710000000022
11
19.4905720000000002
21
-128.1779889999999966
0
LINE
8
BLACK
6
CONTINUOUS
10
19.4905720000000002
20
-128.1779889999999966
11
19.4749999999999979
21
-128.
0
LINE
8
BLACK
6
CONTINUOUS
10
19.4749999999999979
20
-128.
11
19.4749999999999979
21
-74.
0
LINE
8
BLACK
6
CONTINUOUS
10
19.4749999999999979
20
-74.
11
19.4905720000000002
21
-73.8220110000000034
0
LINE
8
BLACK
6
CONTINUOUS
10
19.4905720000000002
20
-73.8220110000000034
11
19.5368150000000007
21
-73.6494289999999978
0
LINE
8
BLACK
6
CONTINUOUS
10
19.5368150000000007
20
-73.6494289999999978
11
19.6123239999999974
21
-73.4874999999999972
0
LINE
8
BLACK
6
CONTINUOUS
10
19.6123239999999974
20
-73.4874999999999972
11
19.7148040000000009
21
-73.3411430000000024
0
LINE
8
BLACK
6
CONTINUOUS
10
19.7148040000000009
20
-73.3411430000000024
11
19.8411429999999989
21
-73.2148040000000009
0
LINE
8
BLACK
6
CONTINUOUS
10
19.8411429999999989
20
-73.2148040000000009
11
19.9875000000000007
21
-73.112324000000001
0
LINE
8
BLACK
6
CONTINUOUS
10
19.9875000000000007
20
-73.112324000000001
11
20.1494289999999978
21
-73.0368149999999901
0
LINE
8
BLACK
6
CONTINUOUS
10
20.1494289999999978
20
-73.0368149999999901
11
20.3220109999999998
21
-72.9905720000000002
0
LINE
8
BLACK
6
CONTINUOUS
10
20.3220109999999998
20
-72.9905720000000002
11
20.5
21
-72.9749999999999943
0
LINE
8
BLACK
6
CONTINUOUS
10
20.5
20
-72.9749999999999943
11
98.75
21
-72.9749999999999943
0
LINE
8
BLACK
6
CONTINUOUS
10
20.5
20
-73.0249999999999915
11
20.4146989999999988
21
-73.0249999999999915
0
LINE
8
BLACK
6
CONTINUOUS
10
20.4146989999999988
20
-73.0249999999999915
11
20.2466879999999989
21
-73.0546250000000015
0
LINE
8
BLACK
6
CONTINUOUS
10
20.2466879999999989
20
-73.0546250000000015
11
20.0863729999999983
21
-73.1129749999999916
0
LINE
8
BLACK
6
CONTINUOUS
10
20.0863729999999983
20
-73.1129749999999916
11
19.9386270000000003
21
-73.1982759999999928
0
LINE
8
BLACK
6
CONTINUOUS
10
19.9386270000000003
20
-73.1982759999999928
11
19.807938
21
-73.3079379999999929
0
LINE
8
BLACK
6
CONTINUOUS
10
19.807938
20
-73.3079379999999929
11
19.6982759999999999
21
-73.4386269999999968
0
LINE
8
BLACK
6
CONTINUOUS
10
19.6982759999999999
20
-73.4386269999999968
11
19.6129749999999987
21
-73.5863729999999947
0
LINE
8
BLACK
6
CONTINUOUS
10
19.6129749999999987
20
-73.5863729999999947
11
19.5546249999999979
21
-73.7466879999999918
0
LINE
8
BLACK
6
CONTINUOUS
10
19.5546249999999979
20
-73.7466879999999918
11
19.5249999999999986
21
-73.9146989999999988
0
LINE
8
BLACK
6
CONTINUOUS
10
19.5249999999999986
20
-73.9146989999999988
11
19.5249999999999986
21
-74.
0
LINE
8
BLACK
6
CONTINUOUS
10
19.5249999999999986
20
-74.
11
19.5249999999999986
21
-128.
0
LINE
8
BLACK
6
CONTINUOUS
10
19.5249999999999986
20
-128.
11
19.5249999999999986
21
-128.085300999999987
0
LINE
8
BLACK
6
CONTINUOUS
10
19.5249999999999986
20
-128.085300999999987
11
19.5546249999999979
21
-128.253311999999994
0
LINE
8
BLACK
6
CONTINUOUS
10
19.5546249999999979
20
-128.253311999999994
11
19.6129749999999987
21
-128.4136269999999911
0
LINE
8
BLACK
6
CONTINUOUS
10
19.6129749999999987
20
-128.4136269999999911
11
19.6982759999999999
21
-128.5613730000000032
0
LINE
8
BLACK
6
CONTINUOUS
10
19.6982759999999999
20
-128.5613730000000032
11
19.807938
21
-128.6920619999999928
0
LINE
8
BLACK
6
CONTINUOUS
10
19.807938
20
-128.6920619999999928
11
19.9386270000000003
21
-128.8017240000000072
0
LINE
8
BLACK
6
CONTINUOUS
10
19.9386270000000003
20
-128.8017240000000072
11
20.0863729999999983
21
-128.8870249999999942
0
LINE
8
BLACK
6
CONTINUOUS
10
20.0863729999999983
20
-128.8870249999999942
11
20.2466879999999989
21
-128.9453749999999843
0
LINE
8
BLACK
6
CONTINUOUS
10
20.2466879999999989
20
-128.9453749999999843
11
20.4146989999999988
21
-128.9749999999999943
0
LINE
8
BLACK
6
CONTINUOUS
10
20.4146989999999988
20
-128.9749999999999943
11
20.5
21
-128.9749999999999943
0
LINE
8
BLACK
6
CONTINUOUS
10
20.5
20
-128.9749999999999943
11
98.75
21
-128.9749999999999943
0
LINE
8
BLACK
6
CONTINUOUS
10
98.75
20
-128.9749999999999943
11
98.8353010000000012
21
-128.9749999999999943
0
LINE
8
BLACK
6
CONTINUOUS
10
98.8353010000000012
20
-128.9749999999999943
11
99.003311999999994
21
-128.9453749999999843
0
LINE
8
BLACK
6
CONTINUOUS
10
99.003311999999994
20
-128.9453749999999843
11
99.1636269999999911
21
-128.8870249999999942
0
LINE
8
BLACK
6
CONTINUOUS
10
99.1636269999999911
20
-128.8870249999999942
11
99.311372999999989
21
-128.8017240000000072
0
LINE
8
BLACK
6
CONTINUOUS
10
99.311372999999989
20
-128.8017240000000072
11
99.4420619999999928
21
-128.6920619999999928
0
LINE
8
BLACK
6
CONTINUOUS
10
99.4420619999999928
20
-128.6920619999999928
11
99.551723999999993
21
-128.5613730000000032
0
LINE
8
BLACK
6
CONTINUOUS
10
99.551723999999993
20
-128.5613730000000032
11
99.6370249999999942
21
-128.4136269999999911
0
LINE
8
BLACK
6
CONTINUOUS
10
99.6370249999999942
20
-128.4136269999999911
11
99.6953749999999985
21
-128.253311999999994
0
LINE
8
BLACK
6
CONTINUOUS
10
99.6953749999999985
20
-128.253311999999994
11
99.7249999999999943
21
-128.085300999999987
0
LINE
8
BLACK
6
CONTINUOUS
10
99.7249999999999943
20
-128.085300999999987
11
99.7249999999999943
21
-128.
0
LINE
8
BLACK
6
CONTINUOUS
10
99.7249999999999943
20
-128.
11
99.7249999999999943
21
-74.
0
LINE
8
BLACK
6
CONTINUOUS
10
99.7249999999999943
20
-74.
11
99.7249999999999943
21
-73.9146989999999988
0
LINE
8
BLACK
6
CONTINUOUS
10
99.7249999999999943
20
-73.9146989999999988
11
99.6953749999999985
21
-73.7466879999999918
0
LINE
8
BLACK
6
CONTINUOUS
10
99.6953749999999985
20
-73.7466879999999918
11
99.6370249999999942
21
-73.5863729999999947
0
LINE
8
BLACK
6
CONTINUOUS
10
99.6370249999999942
20
-73.5863729999999947
11
99.551723999999993
21
-73.4386269999999968
0
LINE
8
BLACK
6
CONTINUOUS
10
99.551723999999993
20
-73.4386269999999968
11
99.4420619999999928
21
-73.3079379999999929
0
LINE
8
BLACK
6
CONTINUOUS
10
99.4420619999999928
20
-73.3079379999999929
11
99.311372999999989
21
-73.1982759999999928
0
LINE
8
BLACK
6
CONTINUOUS
10
99.311372999999989
20
-73.1982759999999928
11
99.1636269999999911
21
-73.1129749999999916
0
LINE
8
BLACK
6
CONTINUOUS
10
99.1636269999999911
20
-73.1129749999999916
11
99.003311999999994
21
-73.0546250000000015
0
LINE
8
BLACK
6
CONTINUOUS
10
99.003311999999994
20
-73.0546250000000015
11
98.8353010000000012
21
-73.0249999999999915
0
LINE
8
BLACK
6
CONTINUOUS
10
98.8353010000000012
20
-73.0249999999999915
11
98.75
21
-73.0249999999999915
0
LINE
8
BLACK
6
CONTINUOUS
10
98.75
20
-73.0249999999999915
11
20.5
21
-73.0249999999999915
0
CIRCLE
8
BLACK
10
23.9674999999999976
20
-102.75
40
0.65
0
CIRCLE
8
BLACK
10
23.9674999999999976
20
-97.75
40
0.65
0
CIRCLE
8
BLACK
10
23.9674999999999976
20
-92.75
40
0.65
0
CIRCLE
8
BLACK
10
92.8499999999999943
20
-124.5
40
0.25
0
CIRCLE
8
BLACK
10
93.5529439999999965
20
-122.8029439999999965
40
0.25
0
CIRCLE
8
BLACK
10
93.5529439999999965
20
-126.1970559999999892
40
0.25
0
CIRCLE
8
BLACK
10
95.25
20
-122.0999999999999943
40
0.25
0
CIRCLE
8
BLACK
10
95.25
20
-124.5
40
1.5999999999999999
0
CIRCLE
8
BLACK
10
95.25
20
-126.8999999999999915
40
0.25
0
CIRCLE
8
BLACK
10
96.9470559999999892
20
-122.8029439999999965
40
0.25
0
CIRCLE
8
BLACK
10
96.9470559999999892
20
-126.1970559999999892
40
0.25
0
CIRCLE
8
BLACK
10
97.6499999999999915
20
-124.5
40
0.25
0
CIRCLE
8
BLACK
10
35.
20
-117.1999999999999886
40
0.5
0
CIRCLE
8
BLACK
10
37.5399999999999991
20
-117.1999999999999886
40
0.5
0
CIRCLE
8
BLACK
10
40.0799990000000008
20
-117.1999999999999886
40
0.5
0
CIRCLE
8
BLACK
10
42.6199999999999974
20
-117.1999999999999886
40
0.5
0
CIRCLE
8
BLACK
10
45.1599999999999966
20
-117.1999999999999886
40
0.5
0
CIRCLE
8
BLACK
10
47.6999999999999957
20
-117.1999999999999886
40
0.5
0
CIRCLE
8
BLACK
10
21.5999999999999979
20
-124.5
40
0.25
0
CIRCLE
8
BLACK
10
22.3029440000000001
20
-122.8029439999999965
40
0.25
0
CIRCLE
8
BLACK
10
22.3029440000000001
20
-126.1970559999999892
40
0.25
0
CIRCLE
8
BLACK
10
24.
20
-122.0999999999999943
40
0.25
0
CIRCLE
8
BLACK
10
24.
20
-124.5
40
1.5999999999999999
0
CIRCLE
8
BLACK
10
24.
20
-126.8999999999999915
40
0.25
0
CIRCLE
8
BLACK
10
25.6970559999999999
20
-122.8029439999999965
40
0.25
0
CIRCLE
8
BLACK
10
25.6970559999999999
20
-126.1970559999999892
40
0.25
0
CIRCLE
8
BLACK
10
26.3999999999999986
20
-124.5
40
0.25
0
CIRCLE
8
BLACK
10
88.6499999999999915
20
-106.
40
0.5499999999999999
0
CIRCLE
8
BLACK
10
93.6499999999999915
20
-106.
40
0.5499999999999999
0
CIRCLE
8
BLACK
10
91.1499999999999915
20
-106.
40
0.5499999999999999
0
LINE
8
BLACK
6
CONTINUOUS
10
86.4451849999999951
20
-98.9980169999999902
11
86.4069399999999916
21
-99.1902849999999887
0
LINE
8
BLACK
6
CONTINUOUS
10
86.4069399999999916
20
-99.1902849999999887
11
86.3319209999999941
21
-99.3713970000000018
0
LINE
8
BLACK
6
CONTINUOUS
10
86.3319209999999941
20
-99.3713970000000018
11
86.2230100000000022
21
-99.5343929999999943
0
LINE
8
BLACK
6
CONTINUOUS
10
86.2230100000000022
20
-99.5343929999999943
11
86.0843929999999915
21
-99.6730099999999908
0
LINE
8
BLACK
6
CONTINUOUS
10
86.0843929999999915
20
-99.6730099999999908
11
85.9213969999999989
21
-99.781920999999997
0
LINE
8
BLACK
6
CONTINUOUS
10
85.9213969999999989
20
-99.781920999999997
11
85.7402850000000001
21
-99.8569399999999945
0
LINE
8
BLACK
6
CONTINUOUS
10
85.7402850000000001
20
-99.8569399999999945
11
85.5480170000000015
21
-99.8951849999999979
0
LINE
8
BLACK
6
CONTINUOUS
10
85.5480170000000015
20
-99.8951849999999979
11
85.3519829999999899
21
-99.8951849999999979
0
LINE
8
BLACK
6
CONTINUOUS
10
85.3519829999999899
20
-99.8951849999999979
11
85.1597149999999914
21
-99.8569399999999945
0
LINE
8
BLACK
6
CONTINUOUS
10
85.1597149999999914
20
-99.8569399999999945
11
84.9786029999999926
21
-99.781920999999997
0
LINE
8
BLACK
6
CONTINUOUS
10
84.9786029999999926
20
-99.781920999999997
11
84.815607
21
-99.6730099999999908
0
LINE
8
BLACK
6
CONTINUOUS
10
84.815607
20
-99.6730099999999908
11
84.6769899999999893
21
-99.5343929999999943
0
LINE
8
BLACK
6
CONTINUOUS
10
84.6769899999999893
20
-99.5343929999999943
11
84.5680789999999973
21
-99.3713970000000018
0
LINE
8
BLACK
6
CONTINUOUS
10
84.5680789999999973
20
-99.3713970000000018
11
84.4930599999999998
21
-99.1902849999999887
0
LINE
8
BLACK
6
CONTINUOUS
10
84.4930599999999998
20
-99.1902849999999887
11
84.4548149999999964
21
-98.9980169999999902
0
LINE
8
BLACK
6
CONTINUOUS
10
84.4548149999999964
20
-98.9980169999999902
11
84.4500000000000028
21
-98.8999999999999915
0
LINE
8
BLACK
6
CONTINUOUS
10
84.4500000000000028
20
-98.8999999999999915
11
84.4500000000000028
21
-98.0999999999999943
0
LINE
8
BLACK
6
CONTINUOUS
10
84.4500000000000028
20
-98.0999999999999943
11
84.4548149999999964
21
-98.0019829999999956
0
LINE
8
BLACK
6
CONTINUOUS
10
84.4548149999999964
20
-98.0019829999999956
11
84.4930599999999998
21
-97.8097149999999971
0
LINE
8
BLACK
6
CONTINUOUS
10
84.4930599999999998
20
-97.8097149999999971
11
84.5680789999999973
21
-97.6286029999999982
0
LINE
8
BLACK
6
CONTINUOUS
10
84.5680789999999973
20
-97.6286029999999982
11
84.6769899999999893
21
-97.4656069999999914
0
LINE
8
BLACK
6
CONTINUOUS
10
84.6769899999999893
20
-97.4656069999999914
11
84.815607
21
-97.326989999999995
0
LINE
8
BLACK
6
CONTINUOUS
10
84.815607
20
-97.326989999999995
11
84.9786029999999926
21
-97.2180789999999888
0
LINE
8
BLACK
6
CONTINUOUS
10
84.9786029999999926
20
-97.2180789999999888
11
85.1597149999999914
21
-97.1430599999999913
0
LINE
8
BLACK
6
CONTINUOUS
10
85.1597149999999914
20
-97.1430599999999913
11
85.3519829999999899
21
-97.1048150000000021
0
LINE
8
BLACK
6
CONTINUOUS
10
85.3519829999999899
20
-97.1048150000000021
11
85.5480170000000015
21
-97.1048150000000021
0
LINE
8
BLACK
6
CONTINUOUS
10
85.5480170000000015
20
-97.1048150000000021
11
85.7402850000000001
21
-97.1430599999999913
0
LINE
8
BLACK
6
CONTINUOUS
10
85.7402850000000001
20
-97.1430599999999913
11
85.9213969999999989
21
-97.2180789999999888
0
LINE
8
BLACK
6
CONTINUOUS
10
85.9213969999999989
20
-97.2180789999999888
11
86.0843929999999915
21
-97.326989999999995
0
LINE
8
BLACK
6
CONTINUOUS
10
86.0843929999999915
20
-97.326989999999995
11
86.2230100000000022
21
-97.4656069999999914
0
LINE
8
BLACK
6
CONTINUOUS
10
86.2230100000000022
20
-97.4656069999999914
11
86.3319209999999941
21
-97.6286029999999982
0
LINE
8
BLACK
6
CONTINUOUS
10
86.3319209999999941
20
-97.6286029999999982
11
86.4069399999999916
21
-97.8097149999999971
0
LINE
8
BLACK
6
CONTINUOUS
10
86.4069399999999916
20
-97.8097149999999971
11
86.4451849999999951
21
-98.0019829999999956
0
LINE
8
BLACK
6
CONTINUOUS
10
86.4451849999999951
20
-98.0019829999999956
11
86.4500000000000028
21
-98.0999999999999943
0
LINE
8
BLACK
6
CONTINUOUS
10
86.4500000000000028
20
-98.0999999999999943
11
86.4500000000000028
21
-98.8999999999999915
0
LINE
8
BLACK
6
CONTINUOUS
10
86.4500000000000028
20
-98.8999999999999915
11
86.4451849999999951
21
-98.9980169999999902
0
LINE
8
BLACK
6
CONTINUOUS
10
97.8451850000000007
20
-98.9980169999999902
11
97.8069399999999973
21
-99.1902849999999887
0
LINE
8
BLACK
6
CONTINUOUS
10
97.8069399999999973
20
-99.1902849999999887
11
97.7319209999999998
21
-99.3713970000000018
0
LINE
8
BLACK
6
CONTINUOUS
10
97.7319209999999998
20
-99.3713970000000018
11
97.6230099999999936
21
-99.5343929999999943
0
LINE
8
BLACK
6
CONTINUOUS
10
97.6230099999999936
20
-99.5343929999999943
11
97.4843929999999972
21
-99.6730099999999908
0
LINE
8
BLACK
6
CONTINUOUS
10
97.4843929999999972
20
-99.6730099999999908
11
97.3213969999999904
21
-99.781920999999997
0
LINE
8
BLACK
6
CONTINUOUS
10
97.3213969999999904
20
-99.781920999999997
11
97.1402849999999916
21
-99.8569399999999945
0
LINE
8
BLACK
6
CONTINUOUS
10
97.1402849999999916
20
-99.8569399999999945
11
96.948016999999993
21
-99.8951849999999979
0
LINE
8
BLACK
6
CONTINUOUS
10
96.948016999999993
20
-99.8951849999999979
11
96.7519829999999956
21
-99.8951849999999979
0
LINE
8
BLACK
6
CONTINUOUS
10
96.7519829999999956
20
-99.8951849999999979
11
96.5597149999999971
21
-99.8569399999999945
0
LINE
8
BLACK
6
CONTINUOUS
10
96.5597149999999971
20
-99.8569399999999945
11
96.3786029999999982
21
-99.781920999999997
0
LINE
8
BLACK
6
CONTINUOUS
10
96.3786029999999982
20
-99.781920999999997
11
96.2156069999999914
21
-99.6730099999999908
0
LINE
8
BLACK
6
CONTINUOUS
10
96.2156069999999914
20
-99.6730099999999908
11
96.076989999999995
21
-99.5343929999999943
0
LINE
8
BLACK
6
CONTINUOUS
10
96.076989999999995
20
-99.5343929999999943
11
95.9680789999999888
21
-99.3713970000000018
0
LINE
8
BLACK
6
CONTINUOUS
10
95.9680789999999888
20
-99.3713970000000018
11
95.8930599999999913
21
-99.1902849999999887
0
LINE
8
BLACK
6
CONTINUOUS
10
95.8930599999999913
20
-99.1902849999999887
11
95.8548150000000021
21
-98.9980169999999902
0
LINE
8
BLACK
6
CONTINUOUS
10
95.8548150000000021
20
-98.9980169999999902
11
95.8499999999999943
21
-98.8999999999999915
0
LINE
8
BLACK
6
CONTINUOUS
10
95.8499999999999943
20
-98.8999999999999915
11
95.8499999999999943
21
-98.0999999999999943
0
LINE
8
BLACK
6
CONTINUOUS
10
95.8499999999999943
20
-98.0999999999999943
11
95.8548150000000021
21
-98.0019829999999956
0
LINE
8
BLACK
6
CONTINUOUS
10
95.8548150000000021
20
-98.0019829999999956
11
95.8930599999999913
21
-97.8097149999999971
0
LINE
8
BLACK
6
CONTINUOUS
10
95.8930599999999913
20
-97.8097149999999971
11
95.9680789999999888
21
-97.6286029999999982
0
LINE
8
BLACK
6
CONTINUOUS
10
95.9680789999999888
20
-97.6286029999999982
11
96.076989999999995
21
-97.4656069999999914
0
LINE
8
BLACK
6
CONTINUOUS
10
96.076989999999995
20
-97.4656069999999914
11
96.2156069999999914
21
-97.326989999999995
0
LINE
8
BLACK
6
CONTINUOUS
10
96.2156069999999914
20
-97.326989999999995
11
96.3786029999999982
21
-97.2180789999999888
0
LINE
8
BLACK
6
CONTINUOUS
10
96.3786029999999982
20
-97.2180789999999888
11
96.5597149999999971
21
-97.1430599999999913
0
LINE
8
BLACK
6
CONTINUOUS
10
96.5597149999999971
20
-97.1430599999999913
11
96.7519829999999956
21
-97.1048150000000021
0
LINE
8
BLACK
6
CONTINUOUS
10
96.7519829999999956
20
-97.1048150000000021
11
96.948016999999993
21
-97.1048150000000021
0
LINE
8
BLACK
6
CONTINUOUS
10
96.948016999999993
20
-97.1048150000000021
11
97.1402849999999916
21
-97.1430599999999913
0
LINE
8
BLACK
6
CONTINUOUS
10
97.1402849999999916
20
-97.1430599999999913
11
97.3213969999999904
21
-97.2180789999999888
0
LINE
8
BLACK
6
CONTINUOUS
10
97.3213969999999904
20
-97.2180789999999888
11
97.4843929999999972
21
-97.326989999999995
0
LINE
8
BLACK
6
CONTINUOUS
10
97.4843929999999972
20
-97.326989999999995
11
97.6230099999999936
21
-97.4656069999999914
0
LINE
8
BLACK
6
CONTINUOUS
10
97.6230099999999936
20
-97.4656069999999914
11
97.7319209999999998
21
-97.6286029999999982
0
LINE
8
BLACK
6
CONTINUOUS
10
97.7319209999999998
20
-97.6286029999999982
11
97.8069399999999973
21
-97.8097149999999971
0
LINE
8
BLACK
6
CONTINUOUS
10
97.8069399999999973
20
-97.8097149999999971
11
97.8451850000000007
21
-98.0019829999999956
0
LINE
8
BLACK
6
CONTINUOUS
10
97.8451850000000007
20
-98.0019829999999956
11
97.8499999999999943
21
-98.0999999999999943
0
LINE
8
BLACK
6
CONTINUOUS
10
97.8499999999999943
20
-98.0999999999999943
11
97.8499999999999943
21
-98.8999999999999915
0
LINE
8
BLACK
6
CONTINUOUS
10
97.8499999999999943
20
-98.8999999999999915
11
97.8451850000000007
21
-98.9980169999999902
0
CIRCLE
8
BLACK
10
88.6500009999999889
20
-91.5
40
0.5499999999999999
0
CIRCLE
8
BLACK
10
93.649998999999994
20
-91.5
40
0.5499999999999999
0
CIRCLE
8
BLACK
10
92.8499999999999943
20
-77.5
40
0.25
0
CIRCLE
8
BLACK
10
93.5529439999999965
20
-75.8029439999999965
40
0.25
0
CIRCLE
8
BLACK
10
93.5529439999999965
20
-79.1970560000000035
40
0.25
0
CIRCLE
8
BLACK
10
95.25
20
-75.0999999999999943
40
0.25
0
CIRCLE
8
BLACK
10
95.25
20
-77.5
40
1.5999999999999999
0
CIRCLE
8
BLACK
10
95.25
20
-79.8999999999999915
40
0.25
0
CIRCLE
8
BLACK
10
96.9470559999999892
20
-75.8029439999999965
40
0.25
0
CIRCLE
8
BLACK
10
96.9470559999999892
20
-79.1970560000000035
40
0.25
0
CIRCLE
8
BLACK
10
97.6499999999999915
20
-77.5
40
0.25
0
CIRCLE
8
BLACK
10
56.8399999999999963
20
-74.1599999999999966
40
0.4
0
CIRCLE
8
BLACK
10
56.8399999999999963
20
-76.7000000000000028
40
0.4
0
CIRCLE
8
BLACK
10
56.8399999999999963
20
-79.2399999999999949
40
0.4
0
CIRCLE
8
BLACK
10
56.8399999999999963
20
-81.7800000000000011
40
0.4
0
CIRCLE
8
BLACK
10
56.8399999999999963
20
-84.3199999999999932
40
0.4
0
CIRCLE
8
BLACK
10
56.8399999999999963
20
-86.8599999999999994
40
0.4
0
CIRCLE
8
BLACK
10
56.8399999999999963
20
-89.3999999999999915
40
0.4
0
CIRCLE
8
BLACK
10
56.8399999999999963
20
-91.9399999999999977
40
0.4
0
CIRCLE
8
BLACK
10
56.8399999999999963
20
-94.4799999999999898
40
0.4
0
CIRCLE
8
BLACK
10
56.8399999999999963
20
-97.019999999999996
40
0.4
0
CIRCLE
8
BLACK
10
56.8399999999999963
20
-99.5600000000000023
40
0.4
0
CIRCLE
8
BLACK
10
56.8399999999999963
20
-102.0999999999999943
40
0.4
0
CIRCLE
8
BLACK
10
56.8399999999999963
20
-104.6400000000000006
40
0.4
0
CIRCLE
8
BLACK
10
56.8399999999999963
20
-107.1799999999999926
40
0.4
0
CIRCLE
8
BLACK
10
56.8399999999999963
20
-109.7199999999999989
40
0.4
0
CIRCLE
8
BLACK
10
56.8399999999999963
20
-112.2599999999999909
40
0.4
0
CIRCLE
8
BLACK
10
56.8399999999999963
20
-114.7999999999999972
40
0.4
0
CIRCLE
8
BLACK
10
56.8399999999999963
20
-117.3399999999999892
40
0.4
0
CIRCLE
8
BLACK
10
56.8399999999999963
20
-119.8799999999999955
40
0.4
0
CIRCLE
8
BLACK
10
56.8363200000000006
20
-122.417279999999991
40
0.4
0
CIRCLE
8
BLACK
10
56.8363200000000006
20
-124.9572799999999972
40
0.4
0
CIRCLE
8
BLACK
10
56.8363200000000006
20
-127.4972799999999893
40
0.4
0
CIRCLE
8
BLACK
10
80.9699999999999989
20
-127.5
40
0.4
0
CIRCLE
8
BLACK
10
80.9699999999999989
20
-124.9599999999999937
40
0.4
0
CIRCLE
8
BLACK
10
80.9699999999999989
20
-122.4199999999999875
40
0.4
0
CIRCLE
8
BLACK
10
80.9699999999999989
20
-119.8799999999999955
40
0.4
0
CIRCLE
8
BLACK
10
80.9699999999999989
20
-117.3399999999999892
40
0.4
0
CIRCLE
8
BLACK
10
80.9699999999999989
20
-114.7999999999999972
40
0.4
0
CIRCLE
8
BLACK
10
80.9699999999999989
20
-112.2599999999999909
40
0.4
0
CIRCLE
8
BLACK
10
80.9699999999999989
20
-109.7199999999999989
40
0.4
0
CIRCLE
8
BLACK
10
80.9699999999999989
20
-107.1799999999999926
40
0.4
0
CIRCLE
8
BLACK
10
80.9699999999999989
20
-104.6400000000000006
40
0.4
0
CIRCLE
8
BLACK
10
80.9699999999999989
20
-102.0999999999999943
40
0.4
0
CIRCLE
8
BLACK
10
80.9699999999999989
20
-99.5600000000000023
40
0.4
0
CIRCLE
8
BLACK
10
80.9699999999999989
20
-97.019999999999996
40
0.4
0
CIRCLE
8
BLACK
10
80.9699999999999989
20
-94.4799999999999898
40
0.4
0
CIRCLE
8
BLACK
10
80.9699999999999989
20
-91.9399999999999977
40
0.4
0
CIRCLE
8
BLACK
10
80.9699999999999989
20
-89.3999999999999915
40
0.4
0
CIRCLE
8
BLACK
10
80.9699999999999989
20
-86.8599999999999994
40
0.4
0
CIRCLE
8
BLACK
10
80.9699999999999989
20
-84.3199999999999932
40
0.4
0
CIRCLE
8
BLACK
10
80.9699999999999989
20
-81.7800000000000011
40
0.4
0
CIRCLE
8
BLACK
10
80.9699999999999989
20
-79.2399999999999949
40
0.4
0
CIRCLE
8
BLACK
10
80.9699999999999989
20
-76.7000000000000028
40
0.4
0
CIRCLE
8
BLACK
10
80.9699999999999989
20
-74.1599999999999966
40
0.4
0
CIRCLE
8
BLACK
10
21.5999999999999979
20
-77.5
40
0.25
0
CIRCLE
8
BLACK
10
22.3029440000000001
20
-75.8029439999999965
40
0.25
0
CIRCLE
8
BLACK
10
22.3029440000000001
20
-79.1970560000000035
40
0.25
0
CIRCLE
8
BLACK
10
24.
20
-75.0999999999999943
40
0.25
0
CIRCLE
8
BLACK
10
24.
20
-77.5
40
1.5999999999999999
0
CIRCLE
8
BLACK
10
24.
20
-79.8999999999999915
40
0.25
0
CIRCLE
8
BLACK
10
25.6970559999999999
20
-75.8029439999999965
40
0.25
0
CIRCLE
8
BLACK
10
25.6970559999999999
20
-79.1970560000000035
40
0.25
0
CIRCLE
8
BLACK
10
26.3999999999999986
20
-77.5
40
0.25
0
CIRCLE
8
BLACK
10
23.9674999999999976
20
-102.75
40
0.65
0
CIRCLE
8
BLACK
10
23.9674999999999976
20
-97.75
40
0.65
0
CIRCLE
8
BLACK
10
23.9674999999999976
20
-92.75
40
0.65
0
CIRCLE
8
BLACK
10
92.8499999999999943
20
-124.5
40
0.25
0
CIRCLE
8
BLACK
10
93.5529439999999965
20
-122.8029439999999965
40
0.25
0
CIRCLE
8
BLACK
10
93.5529439999999965
20
-126.1970559999999892
40
0.25
0
CIRCLE
8
BLACK
10
95.25
20
-122.0999999999999943
40
0.25
0
CIRCLE
8
BLACK
10
95.25
20
-124.5
40
1.5999999999999999
0
CIRCLE
8
BLACK
10
95.25
20
-126.8999999999999915
40
0.25
0
CIRCLE
8
BLACK
10
96.9470559999999892
20
-122.8029439999999965
40
0.25
0
CIRCLE
8
BLACK
10
96.9470559999999892
20
-126.1970559999999892
40
0.25
0
CIRCLE
8
BLACK
10
97.6499999999999915
20
-124.5
40
0.25
0
CIRCLE
8
BLACK
10
35.
20
-117.1999999999999886
40
0.5
0
CIRCLE
8
BLACK
10
37.5399999999999991
20
-117.1999999999999886
40
0.5
0
CIRCLE
8
BLACK
10
40.0799990000000008
20
-117.1999999999999886
40
0.5
0
CIRCLE
8
BLACK
10
42.6199999999999974
20
-117.1999999999999886
40
0.5
0
CIRCLE
8
BLACK
10
45.1599999999999966
20
-117.1999999999999886
40
0.5
0
CIRCLE
8
BLACK
10
47.6999999999999957
20
-117.1999999999999886
40
0.5
0
CIRCLE
8
BLACK
10
21.5999999999999979
20
-124.5
40
0.25
0
CIRCLE
8
BLACK
10
22.3029440000000001
20
-122.8029439999999965
40
0.25
0
CIRCLE
8
BLACK
10
22.3029440000000001
20
-126.1970559999999892
40
0.25
0
CIRCLE
8
BLACK
10
24.
20
-122.0999999999999943
40
0.25
0
CIRCLE
8
BLACK
10
24.
20
-124.5
40
1.5999999999999999
0
CIRCLE
8
BLACK
10
24.
20
-126.8999999999999915
40
0.25
0
CIRCLE
8
BLACK
10
25.6970559999999999
20
-122.8029439999999965
40
0.25
0
CIRCLE
8
BLACK
10
25.6970559999999999
20
-126.1970559999999892
40
0.25
0
CIRCLE
8
BLACK
10
26.3999999999999986
20
-124.5
40
0.25
0
CIRCLE
8
BLACK
10
88.6499999999999915
20
-106.
40
0.5499999999999999
0
CIRCLE
8
BLACK
10
93.6499999999999915
20
-106.
40
0.5499999999999999
0
CIRCLE
8
BLACK
10
91.1499999999999915
20
-106.
40
0.5499999999999999
0
LINE
8
BLACK
6
CONTINUOUS
10
84.4500000000000028
20
-98.0999999999999943
11
84.4500000000000028
21
-98.8999999999999915
0
ARC
8
BLACK
10
85.4500000000000028
20
-98.8999999999999915
40
1.
50
-180.00000000
51
0.00000000
0
LINE
8
BLACK
6
CONTINUOUS
10
86.4500000000000028
20
-98.8999999999999915
11
86.4500000000000028
21
-98.0999999999999943
0
ARC
8
BLACK
10
85.4500000000000028
20
-98.0999999999999943
40
1.
50
0.00000000
51
180.00000000
0
LINE
8
BLACK
6
CONTINUOUS
10
95.8499999999999943
20
-98.0999999999999943
11
95.8499999999999943
21
-98.8999999999999915
0
ARC
8
BLACK
10
96.8499999999999943
20
-98.8999999999999915
40
1.
50
-180.00000000
51
0.00000000
0
LINE
8
BLACK
6
CONTINUOUS
10
97.8499999999999943
20
-98.8999999999999915
11
97.8499999999999943
21
-98.0999999999999943
0
ARC
8
BLACK
10
96.8499999999999943
20
-98.0999999999999943
40
1.
50
0.00000000
51
180.00000000
0
CIRCLE
8
BLACK
10
88.6500009999999889
20
-91.5
40
0.5499999999999999
0
CIRCLE
8
BLACK
10
93.649998999999994
20
-91.5
40
0.5499999999999999
0
CIRCLE
8
BLACK
10
92.8499999999999943
20
-77.5
40
0.25
0
CIRCLE
8
BLACK
10
93.5529439999999965
20
-75.8029439999999965
40
0.25
0
CIRCLE
8
BLACK
10
93.5529439999999965
20
-79.1970560000000035
40
0.25
0
CIRCLE
8
BLACK
10
95.25
20
-75.0999999999999943
40
0.25
0
CIRCLE
8
BLACK
10
95.25
20
-77.5
40
1.5999999999999999
0
CIRCLE
8
BLACK
10
95.25
20
-79.8999999999999915
40
0.25
0
CIRCLE
8
BLACK
10
96.9470559999999892
20
-75.8029439999999965
40
0.25
0
CIRCLE
8
BLACK
10
96.9470559999999892
20
-79.1970560000000035
40
0.25
0
CIRCLE
8
BLACK
10
97.6499999999999915
20
-77.5
40
0.25
0
CIRCLE
8
BLACK
10
56.8399999999999963
20
-74.1599999999999966
40
0.4
0
CIRCLE
8
BLACK
10
56.8399999999999963
20
-76.7000000000000028
40
0.4
0
CIRCLE
8
BLACK
10
56.8399999999999963
20
-79.2399999999999949
40
0.4
0
CIRCLE
8
BLACK
10
56.8399999999999963
20
-81.7800000000000011
40
0.4
0
CIRCLE
8
BLACK
10
56.8399999999999963
20
-84.3199999999999932
40
0.4
0
CIRCLE
8
BLACK
10
56.8399999999999963
20
-86.8599999999999994
40
0.4
0
CIRCLE
8
BLACK
10
56.8399999999999963
20
-89.3999999999999915
40
0.4
0
CIRCLE
8
BLACK
10
56.8399999999999963
20
-91.9399999999999977
40
0.4
0
CIRCLE
8
BLACK
10
56.8399999999999963
20
-94.4799999999999898
40
0.4
0
CIRCLE
8
BLACK
10
56.8399999999999963
20
-97.019999999999996
40
0.4
0
CIRCLE
8
BLACK
10
56.8399999999999963
20
-99.5600000000000023
40
0.4
0
CIRCLE
8
BLACK
10
56.8399999999999963
20
-102.0999999999999943
40
0.4
0
CIRCLE
8
BLACK
10
56.8399999999999963
20
-104.6400000000000006
40
0.4
0
CIRCLE
8
BLACK
10
56.8399999999999963
20
-107.1799999999999926
40
0.4
0
CIRCLE
8
BLACK
10
56.8399999999999963
20
-109.7199999999999989
40
0.4
0
CIRCLE
8
BLACK
10
56.8399999999999963
20
-112.2599999999999909
40
0.4
0
CIRCLE
8
BLACK
10
56.8399999999999963
20
-114.7999999999999972
40
0.4
0
CIRCLE
8
BLACK
10
56.8399999999999963
20
-117.3399999999999892
40
0.4
0
CIRCLE
8
BLACK
10
56.8399999999999963
20
-119.8799999999999955
40
0.4
0
CIRCLE
8
BLACK
10
56.8363200000000006
20
-122.417279999999991
40
0.4
0
CIRCLE
8
BLACK
10
56.8363200000000006
20
-124.9572799999999972
40
0.4
0
CIRCLE
8
BLACK
10
56.8363200000000006
20
-127.4972799999999893
40
0.4
0
CIRCLE
8
BLACK
10
80.9699999999999989
20
-127.5
40
0.4
0
CIRCLE
8
BLACK
10
80.9699999999999989
20
-124.9599999999999937
40
0.4
0
CIRCLE
8
BLACK
10
80.9699999999999989
20
-122.4199999999999875
40
0.4
0
CIRCLE
8
BLACK
10
80.9699999999999989
20
-119.8799999999999955
40
0.4
0
CIRCLE
8
BLACK
10
80.9699999999999989
20
-117.3399999999999892
40
0.4
0
CIRCLE
8
BLACK
10
80.9699999999999989
20
-114.7999999999999972
40
0.4
0
CIRCLE
8
BLACK
10
80.9699999999999989
20
-112.2599999999999909
40
0.4
0
CIRCLE
8
BLACK
10
80.9699999999999989
20
-109.7199999999999989
40
0.4
0
CIRCLE
8
BLACK
10
80.9699999999999989
20
-107.1799999999999926
40
0.4
0
CIRCLE
8
BLACK
10
80.9699999999999989
20
-104.6400000000000006
40
0.4
0
CIRCLE
8
BLACK
10
80.9699999999999989
20
-102.0999999999999943
40
0.4
0
CIRCLE
8
BLACK
10
80.9699999999999989
20
-99.5600000000000023
40
0.4
0
CIRCLE
8
BLACK
10
80.9699999999999989
20
-97.019999999999996
40
0.4
0
CIRCLE
8
BLACK
10
80.9699999999999989
20
-94.4799999999999898
40
0.4
0
CIRCLE
8
BLACK
10
80.9699999999999989
20
-91.9399999999999977
40
0.4
0
CIRCLE
8
BLACK
10
80.9699999999999989
20
-89.3999999999999915
40
0.4
0
CIRCLE
8
BLACK
10
80.9699999999999989
20
-86.8599999999999994
40
0.4
0
CIRCLE
8
BLACK
10
80.9699999999999989
20
-84.3199999999999932
40
0.4
0
CIRCLE
8
BLACK
10
80.9699999999999989
20
-81.7800000000000011
40
0.4
0
CIRCLE
8
BLACK
10
80.9699999999999989
20
-79.2399999999999949
40
0.4
0
CIRCLE
8
BLACK
10
80.9699999999999989
20
-76.7000000000000028
40
0.4
0
CIRCLE
8
BLACK
10
80.9699999999999989
20
-74.1599999999999966
40
0.4
0
CIRCLE
8
BLACK
10
21.5999999999999979
20
-77.5
40
0.25
0
CIRCLE
8
BLACK
10
22.3029440000000001
20
-75.8029439999999965
40
0.25
0
CIRCLE
8
BLACK
10
22.3029440000000001
20
-79.1970560000000035
40
0.25
0
CIRCLE
8
BLACK
10
24.
20
-75.0999999999999943
40
0.25
0
CIRCLE
8
BLACK
10
24.
20
-77.5
40
1.5999999999999999
0
CIRCLE
8
BLACK
10
24.
20
-79.8999999999999915
40
0.25
0
CIRCLE
8
BLACK
10
25.6970559999999999
20
-75.8029439999999965
40
0.25
0
CIRCLE
8
BLACK
10
25.6970559999999999
20
-79.1970560000000035
40
0.25
0
CIRCLE
8
BLACK
10
26.3999999999999986
20
-77.5
40
0.25
  0
ENDSEC
  0
EOF
